<?xml version="1.0" encoding="utf-8"?>
<!-- Generator: Adobe Illustrator 21.1.0, SVG Export Plug-In . SVG Version: 6.00 Build 0)  -->
<svg version="1.1" id="Слой_1" xmlns="http://www.w3.org/2000/svg" xmlns:xlink="http://www.w3.org/1999/xlink" x="0px" y="0px"
	 viewBox="0 0 217.5 48" style="enable-background:new 0 0 217.5 48;" xml:space="preserve">
<style type="text/css">
	.st0{fill:#DB2B21;}
	.st1{clip-path:url(#SVGID_2_);fill:#DB2B21;}
	.st2{clip-path:url(#SVGID_4_);fill:#DB2B21;}
	.st3{fill:#B4B1B1;}
	.st4{clip-path:url(#SVGID_6_);fill:#B4B1B1;}
	.st5{clip-path:url(#SVGID_8_);fill:#B4B1B1;}
	.st6{clip-path:url(#SVGID_10_);fill:#B4B1B1;}
</style>
<polygon class="st0" points="59.5,0.2 59.5,16.9 63.9,16.9 63.9,4.1 69.7,4.1 69.7,16.9 74.2,16.9 74.2,0.2 "/>
<g>
	<defs>
		<rect id="SVGID_1_" width="217.5" height="48"/>
	</defs>
	<clipPath id="SVGID_2_">
		<use xlink:href="#SVGID_1_"  style="overflow:visible;"/>
	</clipPath>
	<path class="st1" d="M83.5,13.1c0.8,0,1.5-0.1,1.9-0.2c0.4-0.1,0.7-0.4,0.9-0.8c0.2-0.4,0.3-1,0.3-1.8V6.7c0-0.6-0.1-1.1-0.2-1.5
		c-0.1-0.4-0.3-0.6-0.5-0.8C85.7,4.2,85.4,4.1,85,4s-0.9-0.1-1.5-0.1c-0.8,0-1.5,0.1-1.9,0.2c-0.4,0.1-0.7,0.4-0.9,0.7
		c-0.2,0.4-0.3,1-0.3,1.8v3.8c0,0.8,0.1,1.4,0.3,1.8c0.2,0.4,0.5,0.6,0.9,0.8S82.6,13.1,83.5,13.1 M83.5,17c-1.2,0-2.3-0.1-3.2-0.3
		c-0.9-0.2-1.7-0.5-2.4-0.9c-0.7-0.4-1.2-1.1-1.6-1.9c-0.4-0.8-0.6-1.8-0.6-3.1V6.2c0-1.2,0.2-2.3,0.6-3.1c0.4-0.8,0.9-1.4,1.6-1.9
		s1.5-0.7,2.4-0.9c0.9-0.2,2-0.3,3.2-0.3c1.2,0,2.3,0.1,3.2,0.3c0.9,0.2,1.7,0.5,2.4,0.9s1.2,1.1,1.6,1.9c0.4,0.8,0.6,1.8,0.6,3.1
		v4.7c0,1.2-0.2,2.3-0.6,3.1c-0.4,0.8-0.9,1.4-1.6,1.9c-0.7,0.4-1.5,0.7-2.4,0.9C85.8,16.9,84.7,17,83.5,17"/>
	<path class="st1" d="M97.1,8.7h3c0.6,0,1-0.1,1.3-0.2c0.3-0.1,0.4-0.3,0.5-0.7c0.1-0.3,0.1-0.9,0.1-1.6c0-0.6,0-1.1-0.1-1.4
		c-0.1-0.3-0.3-0.5-0.6-0.7s-0.7-0.2-1.3-0.2h-3V8.7z M97.1,16.9h-4.4V0.2h8.4c1,0,1.9,0.1,2.7,0.3c0.7,0.2,1.3,0.6,1.7,1.1
		c0.4,0.5,0.8,1.1,1,1.9c0.2,0.8,0.3,1.7,0.3,2.8c0,1.2-0.1,2.2-0.3,3c-0.2,0.8-0.5,1.4-0.9,1.9c-0.4,0.5-1,0.8-1.7,1
		c-0.7,0.2-1.7,0.3-2.9,0.3h-3.9V16.9z"/>
</g>
<polygon class="st0" points="106.6,0.2 106.6,4.1 110.9,4.1 110.9,16.9 115.4,16.9 115.4,4.1 119.8,4.1 119.8,0.2 "/>
<path class="st0" d="M127.5,3.5L127.5,3.5l2.1,7.2h-4.1L127.5,3.5z M124,0.2l-5,16.7h4.6l0.8-2.9h6l0.9,2.9h4.5l-5.1-16.7H124z"/>
<g>
	<defs>
		<rect id="SVGID_3_" width="217.5" height="48"/>
	</defs>
	<clipPath id="SVGID_4_">
		<use xlink:href="#SVGID_3_"  style="overflow:visible;"/>
	</clipPath>
	<path class="st2" d="M138.3,0.2h13.5v16.7h-4.5V4.1h-4.8v7c0,1.2-0.2,2.3-0.5,3.2c-0.4,0.9-0.9,1.6-1.7,2c-0.7,0.5-1.7,0.7-2.8,0.7
		c-0.8,0-1.6-0.1-2.3-0.2v-3.6c0.3,0.1,0.8,0.2,1.4,0.2c0.6,0,1-0.2,1.3-0.5c0.2-0.3,0.4-0.9,0.4-1.7V0.2z"/>
</g>
<polygon class="st3" points="59.5,23.7 71.7,23.7 71.7,38.8 70,38.8 70,25.2 61.2,25.2 61.2,38.8 59.5,38.8 "/>
<g>
	<defs>
		<rect id="SVGID_5_" width="217.5" height="48"/>
	</defs>
	<clipPath id="SVGID_6_">
		<use xlink:href="#SVGID_5_"  style="overflow:visible;"/>
	</clipPath>
	<path class="st4" d="M75.4,34.5c0.1,0.8,0.3,1.4,0.6,1.8c0.3,0.4,0.8,0.7,1.4,0.9c0.6,0.2,1.4,0.2,2.5,0.2c1.1,0,1.9-0.1,2.5-0.2
		c0.6-0.2,1-0.5,1.4-0.9c0.3-0.4,0.5-1,0.6-1.8c0.1-0.8,0.2-1.9,0.2-3.3c0-1.5,0-2.6-0.2-3.3c-0.1-0.8-0.3-1.4-0.6-1.8
		c-0.3-0.4-0.8-0.7-1.3-0.9C81.8,25.1,81,25,79.9,25c-1.1,0-1.9,0.1-2.5,0.2c-0.6,0.2-1,0.4-1.3,0.9c-0.3,0.4-0.5,1-0.6,1.8
		c-0.1,0.8-0.2,1.9-0.2,3.3C75.2,32.7,75.3,33.8,75.4,34.5 M73.8,27.2c0.2-1,0.5-1.8,1-2.3c0.5-0.5,1.1-0.9,1.9-1.1
		c0.8-0.2,1.9-0.3,3.2-0.3c1.3,0,2.4,0.1,3.2,0.3s1.4,0.6,1.9,1.1c0.5,0.5,0.8,1.3,1,2.3c0.2,1,0.3,2.3,0.3,4c0,1.7-0.1,3-0.3,4
		c-0.2,1-0.5,1.8-1,2.3s-1.1,0.9-1.9,1.1c-0.8,0.2-1.9,0.3-3.2,0.3c-1.3,0-2.4-0.1-3.2-0.3c-0.8-0.2-1.4-0.6-1.9-1.1
		c-0.5-0.5-0.8-1.3-1-2.3c-0.2-1-0.3-2.3-0.3-4C73.6,29.6,73.6,28.2,73.8,27.2"/>
	<path class="st4" d="M97.8,33.7h1.6c0,1.3-0.2,2.4-0.5,3.1c-0.3,0.7-0.9,1.3-1.8,1.6c-0.9,0.3-2.1,0.5-3.7,0.5
		c-1.2,0-2.2-0.1-2.9-0.3c-0.7-0.2-1.4-0.6-1.8-1.1c-0.5-0.5-0.8-1.3-1-2.3c-0.2-1-0.3-2.3-0.3-3.9c0-1.6,0.1-2.9,0.3-3.9
		c0.2-1,0.5-1.8,1-2.3c0.5-0.6,1.1-0.9,1.8-1.2c0.8-0.2,1.7-0.3,2.9-0.3c1.2,0,2.2,0.1,2.9,0.3c0.7,0.2,1.3,0.5,1.7,0.9
		c0.4,0.4,0.7,0.9,0.8,1.5c0.2,0.6,0.3,1.4,0.3,2.3l-1.6,0c-0.1-1-0.3-1.7-0.4-2.2s-0.6-0.8-1.1-1S94.6,25,93.4,25
		c-0.9,0-1.6,0.1-2.2,0.3c-0.5,0.2-1,0.5-1.3,0.9c-0.3,0.4-0.5,1.1-0.7,1.9c-0.1,0.8-0.2,1.9-0.2,3.2c0,1.3,0.1,2.4,0.2,3.2
		c0.1,0.8,0.4,1.4,0.7,1.8c0.3,0.4,0.8,0.7,1.3,0.9c0.5,0.2,1.3,0.2,2.2,0.2c0.9,0,1.7-0.1,2.2-0.2c0.6-0.1,1-0.3,1.3-0.6
		c0.3-0.3,0.5-0.6,0.7-1.1C97.7,35.1,97.8,34.5,97.8,33.7"/>
</g>
<polygon class="st3" points="104.6,38.8 104.6,25.2 99.6,25.2 99.6,23.7 111.2,23.7 111.2,25.2 106.3,25.2 106.3,38.8 "/>
<path class="st3" d="M121.7,34.2l-3.3-9.3l-3.3,9.3H121.7z M111.5,38.8l5.5-15.1h2.4l5.6,15.1h-1.8l-1.1-3.1h-7.6l-1.2,3.1H111.5z"
	/>
<g>
	<defs>
		<rect id="SVGID_7_" width="217.5" height="48"/>
	</defs>
	<clipPath id="SVGID_8_">
		<use xlink:href="#SVGID_7_"  style="overflow:visible;"/>
	</clipPath>
	<path class="st5" d="M128.2,31.7v5.5h4.7c0.7,0,1.3,0,1.7-0.1c0.4-0.1,0.8-0.2,1-0.4c0.3-0.2,0.5-0.5,0.6-0.8
		c0.1-0.4,0.2-0.9,0.2-1.5c0-0.8-0.1-1.4-0.2-1.8c-0.2-0.4-0.4-0.6-0.8-0.8c-0.4-0.1-1-0.2-1.8-0.2H128.2z M128.2,25.2v5.1h4.8
		c0.8,0,1.3-0.1,1.8-0.2c0.4-0.2,0.7-0.4,0.9-0.8c0.2-0.4,0.3-0.9,0.3-1.7c0-0.9-0.2-1.6-0.5-1.9c-0.3-0.3-0.9-0.5-1.8-0.5H128.2z
		 M134.2,38.8h-7.7V23.7h7.3c1.3,0,2.3,0.3,2.9,0.9c0.6,0.6,0.9,1.5,0.9,2.9c0,0.6,0,1.2-0.1,1.6c-0.1,0.4-0.3,0.8-0.5,1.1
		s-0.7,0.6-1.2,0.8c0.6,0.2,1.1,0.4,1.5,0.7c0.3,0.3,0.6,0.7,0.7,1.1c0.1,0.4,0.2,1,0.2,1.7c0,1.4-0.3,2.5-0.9,3.2
		C136.6,38.4,135.6,38.8,134.2,38.8"/>
</g>
<polygon class="st3" points="149.3,23.7 151,23.7 151,37.3 158.7,37.3 158.7,23.7 160.4,23.7 160.4,37.3 161.4,37.3 161.4,42.3 
	159.9,42.3 159.9,38.8 140,38.8 140,23.7 141.6,23.7 141.6,37.3 149.3,37.3 "/>
<polygon class="st3" points="163.1,23.7 164.8,23.7 164.8,37.6 173.4,23.7 176.1,23.7 176.1,38.8 174.4,38.8 174.4,25 165.8,38.8 
	163.1,38.8 "/>
<polygon class="st3" points="180.2,23.7 180.2,30.3 181.7,30.3 187.9,23.7 190.1,23.7 183.2,31 190.9,38.8 188.6,38.8 181.7,31.8 
	180.2,31.8 180.2,38.8 178.5,38.8 178.5,23.7 "/>
<g>
	<defs>
		<rect id="SVGID_9_" width="217.5" height="48"/>
	</defs>
	<clipPath id="SVGID_10_">
		<use xlink:href="#SVGID_9_"  style="overflow:visible;"/>
	</clipPath>
	<path class="st6" d="M193.4,34.5c0.1,0.8,0.3,1.4,0.6,1.8c0.3,0.4,0.8,0.7,1.4,0.9c0.6,0.2,1.4,0.2,2.5,0.2c1.1,0,1.9-0.1,2.5-0.2
		c0.6-0.2,1-0.5,1.4-0.9c0.3-0.4,0.5-1,0.6-1.8c0.1-0.8,0.2-1.9,0.2-3.3c0-1.5-0.1-2.6-0.2-3.3c-0.1-0.8-0.3-1.4-0.6-1.8
		c-0.3-0.4-0.8-0.7-1.3-0.9c-0.6-0.2-1.4-0.2-2.5-0.2c-1.1,0-1.9,0.1-2.5,0.2c-0.6,0.2-1,0.4-1.3,0.9c-0.3,0.4-0.5,1-0.6,1.8
		c-0.1,0.8-0.2,1.9-0.2,3.3C193.2,32.7,193.3,33.8,193.4,34.5 M191.8,27.2c0.2-1,0.5-1.8,1-2.3c0.5-0.5,1.1-0.9,1.9-1.1
		c0.8-0.2,1.9-0.3,3.2-0.3c1.3,0,2.4,0.1,3.2,0.3c0.8,0.2,1.4,0.6,1.9,1.1c0.5,0.5,0.8,1.3,1,2.3c0.2,1,0.3,2.3,0.3,4
		c0,1.7-0.1,3-0.3,4c-0.2,1-0.5,1.8-1,2.3c-0.5,0.5-1.1,0.9-1.9,1.1c-0.8,0.2-1.9,0.3-3.2,0.3c-1.3,0-2.4-0.1-3.2-0.3
		c-0.8-0.2-1.4-0.6-1.9-1.1c-0.5-0.5-0.8-1.3-1-2.3c-0.2-1-0.3-2.3-0.3-4C191.5,29.6,191.6,28.2,191.8,27.2"/>
	<path class="st6" d="M207.6,31.7v5.5h4.7c0.7,0,1.3,0,1.7-0.1c0.4-0.1,0.8-0.2,1-0.4c0.3-0.2,0.5-0.5,0.6-0.8
		c0.1-0.4,0.2-0.9,0.2-1.5c0-0.8-0.1-1.4-0.2-1.8c-0.2-0.4-0.4-0.6-0.8-0.8c-0.4-0.1-1-0.2-1.8-0.2H207.6z M207.6,25.2v5.1h4.8
		c0.8,0,1.3-0.1,1.8-0.2c0.4-0.2,0.7-0.4,0.9-0.8c0.2-0.4,0.3-0.9,0.3-1.7c0-0.9-0.2-1.6-0.5-1.9c-0.3-0.3-0.9-0.5-1.8-0.5H207.6z
		 M213.6,38.8h-7.7V23.7h7.3c1.3,0,2.3,0.3,2.9,0.9c0.6,0.6,0.9,1.5,0.9,2.9c0,0.6,0,1.2-0.1,1.6c-0.1,0.4-0.3,0.8-0.5,1.1
		s-0.7,0.6-1.2,0.8c0.6,0.2,1.1,0.4,1.5,0.7c0.3,0.3,0.6,0.7,0.7,1.1c0.1,0.4,0.2,1,0.2,1.7c0,1.4-0.3,2.5-0.9,3.2
		C216,38.4,215,38.8,213.6,38.8"/>
</g>
<path class="st3" d="M8.2,16.3h23.5v23.5H8.2V16.3z M0,48h39.9V8.1H0V48z"/>
<path class="st0" d="M16.3,8.2h23.5v23.5H16.3V8.2z M8.1,39.9H48V0H8.1V39.9z"/>
<polygon class="st3" points="31.7,8.2 31.7,39.9 39.9,48 39.9,8.1 "/>
</svg>
