<?xml version="1.0" encoding="utf-8"?>
<!-- Generator: Adobe Illustrator 19.2.1, SVG Export Plug-In . SVG Version: 6.00 Build 0)  -->
<svg version="1.1" id="Слой_1" xmlns="http://www.w3.org/2000/svg" xmlns:xlink="http://www.w3.org/1999/xlink" x="0px" y="0px"
	 viewBox="0 0 30.1 30" style="enable-background:new 0 0 30.1 30;" xml:space="preserve">
<style type="text/css">
	.st0{clip-path:url(#SVGID_2_);fill:#FFFFFF;}
</style>
<g>
	<defs>
		<rect id="SVGID_1_" width="30.1" height="30"/>
	</defs>
	<clipPath id="SVGID_2_">
		<use xlink:href="#SVGID_1_"  style="overflow:visible;"/>
	</clipPath>
	<path class="st0" d="M25.2,20.1c-1.4,0-2.8,0.6-3.7,1.7l-8.3-4.3c0.3-0.8,0.5-1.7,0.5-2.6c0-0.9-0.2-1.8-0.5-2.6l8.4-3.9
		c0.9,0.9,2.2,1.6,3.6,1.6c2.7,0,4.9-2.3,4.9-4.9s-2.2-5-4.9-5s-4.9,2.3-4.9,4.9c0,0.4,0.1,0.8,0.2,1.3l-8.6,4c-1.3-1.3-3-2.2-5-2.2
		C3.1,8,0,11.1,0,14.9c0,3.8,3.1,6.9,6.8,6.9c1.9,0,3.7-0.8,4.9-2.2l8.5,4.4c-0.1,0.4-0.1,0.7-0.1,1.1c0,2.8,2.2,4.9,4.9,4.9
		c2.8,0,4.9-2.3,4.9-4.9S27.9,20.1,25.2,20.1"/>
</g>
</svg>
